<?xml version="1.0" encoding="UTF-8" standalone="no"?><svg xmlns="http://www.w3.org/2000/svg" xmlns:xlink="http://www.w3.org/1999/xlink" fill="#000000" height="512" preserveAspectRatio="xMidYMid meet" version="1" viewBox="0.0 0.0 290.1 512.0" width="290.1" zoomAndPan="magnify"><defs><clipPath id="a"><path d="M 0 0 L 290.128906 0 L 290.128906 512 L 0 512 Z M 0 0"/></clipPath></defs><g><g clip-path="url(#a)" id="change1_1"><path d="M 8.527344 512 C 7 512 5.464844 511.589844 4.082031 510.746094 C 0.488281 508.542969 -0.960938 504.039062 0.667969 500.15625 L 96.285156 273.066406 L 8.535156 273.066406 C 5.574219 273.066406 2.835938 271.53125 1.273438 269.011719 C -0.277344 266.496094 -0.421875 263.355469 0.898438 260.71875 L 128.898438 4.71875 C 130.351562 1.824219 133.304688 0 136.535156 0 L 273.070312 0 C 276.175781 0 279.042969 1.6875 280.546875 4.421875 C 282.046875 7.140625 281.945312 10.46875 280.28125 13.097656 L 180.484375 170.667969 L 281.605469 170.667969 C 284.921875 170.667969 287.933594 172.59375 289.335938 175.597656 C 290.734375 178.609375 290.273438 182.160156 288.132812 184.703125 L 15.066406 508.972656 C 13.390625 510.949219 10.976562 512 8.527344 512" fill="#ffcb11"/></g></g></svg>