<?xml version="1.0" encoding="UTF-8" standalone="no"?><svg xmlns="http://www.w3.org/2000/svg" xmlns:xlink="http://www.w3.org/1999/xlink" data-name="Layer 1" fill="#ffffff" height="309.3" preserveAspectRatio="xMidYMid meet" version="1" viewBox="32.8 95.2 434.3 309.3" width="434.3" zoomAndPan="magnify"><g id="change1_1"><path d="M327.49435,404.5013H265.03423a4.72711,4.72711,0,0,1-4.7271-4.7271V331.50686a4.7271,4.7271,0,0,1,4.7271-4.7271h62.46012c41.68858,0,61.95063-15.39667,61.95063-47.07373s-20.262-47.07369-61.95063-47.07369H180.422v54.67251a4.7271,4.7271,0,0,1-7.37768,3.91406l-138.135-93.54439a4.72709,4.72709,0,0,1,.00034-7.82835l138.135-93.52662a4.7271,4.7271,0,0,1,7.37734,3.91429v54.67692H327.49435c103.08816,0,139.67282,67.23185,139.67282,124.79527S430.58251,404.5013,327.49435,404.5013Z" fill="inherit"/></g></svg>